<svg xmlns="http://www.w3.org/2000/svg" xmlns:xlink="http://www.w3.org/1999/xlink" style="enable-background:new 0 0 720 720" x="0" y="0" version="1.1" viewBox="0 0 720 720" xml:space="preserve"><style type="text/css"/><g id="excel"><rect width="16.54" height="422.76" x="363.77" y="2.4" transform="matrix(6.123234e-17 -1 1 6.123234e-17 158.2679 585.818)"/><rect width="16.03" height="422.76" x="364.03" y="87.09" transform="matrix(-1.836970e-16 1 -1 -1.836970e-16 670.5085 -73.5773)"/><rect width="16.03" height="422.76" x="364.03" y="162.52" transform="matrix(-1.836970e-16 1 -1 -1.836970e-16 745.9413 1.8555)"/><rect width="16.03" height="422.76" x="364.03" y="237.95" transform="matrix(-1.836970e-16 1 -1 -1.836970e-16 821.374 77.2882)"/><rect width="16.03" height="422.76" x="364.03" y="310.16" transform="matrix(-1.836970e-16 1 -1 -1.836970e-16 893.5822 149.4963)"/><rect width="16.03" height="324.05" x="160.66" y="205.51" transform="matrix(-1 -1.224647e-16 1.224647e-16 -1 337.3564 735.0591)"/><rect width="16.03" height="324.05" x="567.39" y="205.51" transform="matrix(-1 -1.224647e-16 1.224647e-16 -1 1150.8153 735.0591)"/><rect width="16.03" height="239.1" x="491.87" y="290.45" transform="matrix(-1 -1.224647e-16 1.224647e-16 -1 999.7574 820.0049)"/><rect width="16.03" height="239.1" x="407.94" y="290.45" transform="matrix(-1 -1.224647e-16 1.224647e-16 -1 831.9138 820.0049)"/><rect width="16.03" height="239.1" x="326.27" y="290.45" transform="matrix(-1 -1.224647e-16 1.224647e-16 -1 668.5569 820.0049)"/></g></svg>